<svg width="100" height="125" viewBox="0 0 100 125" fill="none" xmlns="http://www.w3.org/2000/svg">
<path d="M47.7925 82.9307C48.3071 83.4854 49.0708 83.8032 49.8877 83.8032C49.8872 83.8032 49.8882 83.8032 49.8877 83.8032C50.7046 83.8032 51.4692 83.4849 51.9834 82.9302C52.0586 82.8491 52.1201 82.7559 52.165 82.6543L58.2817 68.7969C58.3379 68.6694 58.3667 68.5322 58.3667 68.3931V20.7148C58.3667 18.3906 56.1528 16.5 53.4321 16.5H46.3438C43.623 16.5 41.4092 18.3906 41.4092 20.7148V68.3931C41.4092 68.5322 41.438 68.6694 41.4941 68.7969L47.6104 82.6543C47.6553 82.7559 47.7168 82.8491 47.7925 82.9307ZM56.3667 66.9805H50.8877V30.2085H56.3667V66.9805ZM48.8877 66.9805H43.4092V30.2085H48.8877V66.9805ZM56.0143 68.9805L52.8469 76.1562H46.9287L43.7615 68.9805H56.0143ZM49.355 81.6533L47.8115 78.1562H51.9641L50.4204 81.6533C50.1455 81.8442 49.6304 81.8433 49.355 81.6533ZM46.3438 18.5H53.4321C55.0503 18.5 56.3667 19.4937 56.3667 20.7148V28.2085H43.4092V20.7148C43.4092 19.4937 44.7256 18.5 46.3438 18.5Z" fill="red"/>
<path d="M22.1665 36.9507L14.3081 32.4136C13.8281 32.1372 13.2183 32.3013 12.9419 32.7798C12.666 33.2583 12.8296 33.8696 13.3081 34.146L21.1665 38.6831C21.3242 38.7739 21.4961 38.8169 21.6655 38.8169C22.0112 38.8169 22.3472 38.6377 22.5327 38.3169C22.8086 37.8384 22.645 37.2271 22.1665 36.9507Z" fill="red"/>
<path d="M11 50.8511H20.0742C20.6265 50.8511 21.0742 50.4033 21.0742 49.8511C21.0742 49.2988 20.6265 48.8511 20.0742 48.8511H11C10.4478 48.8511 10 49.2988 10 49.8511C10 50.4033 10.4478 50.8511 11 50.8511Z" fill="red"/>
<path d="M21.0376 61.0542L13.1792 65.5913C12.7007 65.8677 12.5371 66.479 12.813 66.9575C12.9985 67.2783 13.3345 67.4575 13.6802 67.4575C13.8496 67.4575 14.022 67.4146 14.1792 67.3237L22.0376 62.7866C22.5161 62.5103 22.6797 61.8989 22.4038 61.4204C22.1269 60.9424 21.5146 60.7769 21.0376 61.0542Z" fill="red"/>
<path d="M77.4673 61.4204C77.1914 61.8989 77.355 62.5103 77.8335 62.7866L85.6919 67.3237C85.8496 67.4146 86.0215 67.4575 86.1909 67.4575C86.5366 67.4575 86.8726 67.2783 87.0581 66.9575C87.334 66.479 87.1704 65.8677 86.6919 65.5913L78.8335 61.0542C78.3535 60.7769 77.7432 60.9424 77.4673 61.4204Z" fill="red"/>
<path d="M89 48.8857H79.9258C79.3735 48.8857 78.9258 49.3335 78.9258 49.8857C78.9258 50.438 79.3735 50.8857 79.9258 50.8857H89C89.5522 50.8857 90 50.438 90 49.8857C90 49.3335 89.5522 48.8857 89 48.8857Z" fill="red"/>
<path d="M86.8208 34.146C87.2993 33.8696 87.4629 33.2583 87.187 32.7798C86.9101 32.3013 86.2974 32.1372 85.8208 32.4136L77.9624 36.9507C77.4839 37.2271 77.3203 37.8384 77.5962 38.3169C77.7817 38.6377 78.1177 38.8169 78.4634 38.8169C78.6328 38.8169 78.8052 38.7739 78.9624 38.6831L86.8208 34.146Z" fill="red"/>
</svg>
